<svg width="24" height="16" viewBox="0 0 24 16" fill="none" xmlns="http://www.w3.org/2000/svg">
<path d="M23.7111 0.864125C23.3262 0.202413 22.7023 -0.155346 22.3176 0.065055L21.3067 0.55321C20.9989 0.379683 20.6919 0.339673 20.4571 0.4742L18.7514 1.33491C18.572 1.43773 18.4604 1.62776 18.4167 1.86848L8.80767 6.32131L4.4197 2.27679L4.41883 2.27771C4.41265 2.27174 4.40641 2.2658 4.40002 2.26C4.12979 2.01436 3.72193 1.96513 3.26997 2.08299L2.40175 1.29428C2.01357 0.957686 1.21546 1.21174 0.610182 1.86753C0.010802 2.51693 -0.176583 3.31876 0.18091 3.67835L0.89338 4.35019C0.660876 4.98337 0.697619 5.56702 1.05114 5.88837L10.7648 14.8397C10.996 15.0499 11.3279 15.1162 11.7019 15.0573L12.4456 15.7395C12.4639 15.7607 12.4835 15.7809 12.5045 15.7999C12.9939 16.2448 14.0206 15.923 14.7977 15.081C15.5748 14.2391 15.8079 13.1959 15.3185 12.751L14.4177 11.952C14.4092 11.6741 14.3258 11.4336 14.1611 11.2581L14.1623 11.2568L10.9471 8.29323L19.6819 4.24552C19.9359 4.37461 20.1862 4.41078 20.3926 4.33083L22.178 3.43213C22.3216 3.34986 22.4216 3.21171 22.4783 3.03646L23.7117 2.46134C24.0963 2.24093 24.0961 1.52584 23.7111 0.864125Z" fill="black"/>
<path d="M14.7133 15.0361C14.0195 15.7877 13.1652 16.1316 12.8051 15.8042C12.445 15.4769 12.7154 14.6022 13.4091 13.8506C14.1028 13.099 14.9571 12.7551 15.3173 13.0824C15.6774 13.4098 15.407 14.2845 14.7133 15.0361Z" fill="white"/>
<path d="M14.3791 12.1749C14.0756 12.0745 13.7287 12.0171 12.9481 12.5049L13.8009 13.2652C14.4225 12.677 14.9284 12.7487 15.1597 12.8205L14.3791 12.1749Z" fill="white"/>
<path d="M12.5867 15.4169C12.4826 14.9235 12.7313 14.3267 13.3528 13.7386L12.3843 12.9926C11.777 13.5215 11.5074 13.949 11.5315 14.4989C11.8832 14.9675 12.6908 15.9104 12.5867 15.4169Z" fill="white"/>
<path d="M0.549089 2.41661L2.05629 3.91168L1.3704 4.68591L0.195835 3.54146C0.195835 3.54146 -0.0228511 3.19997 0.199791 2.73775C0.422434 2.27554 0.549089 2.41661 0.549089 2.41661Z" fill="white"/>
<path d="M2.43295 1.4152L3.80687 2.66579L3.17638 3.34797L1.33947 1.47758C1.33947 1.47758 1.29597 1.36574 1.72996 1.23998C2.16394 1.11422 2.43295 1.4152 2.43295 1.4152Z" fill="white"/>
<path d="M3.72241 4.94681C2.79764 5.94875 1.57578 6.33176 0.993318 5.80229C0.410851 5.27282 0.688344 4.03137 1.61312 3.02942C2.53789 2.02748 3.75974 1.64447 4.34221 2.17394C4.92468 2.70341 4.64719 3.94486 3.72241 4.94681Z" fill="black"/>
<path d="M14.8851 13.1074L13.613 13.7959L12.8035 15.1587L13.3817 15.6895L14.6538 14.8431L15.3187 13.7242L14.8851 13.1074Z" fill="black"/>
<path d="M22.2426 1.65995C22.0666 1.25245 21.6933 0.842273 21.4909 0.627096L22.5751 0.0963254C22.8545 0.206305 23.3238 0.500859 23.6014 1.02876C23.8789 1.55666 23.8905 2.06639 23.7748 2.26244L22.4883 2.87928C22.4883 2.52066 22.4161 2.06161 22.2426 1.65995Z" fill="white"/>
</svg>
